<?xml version="1.0" encoding="UTF-8"?>
<!DOCTYPE svg PUBLIC "-//W3C//DTD SVG 1.1//EN" "http://www.w3.org/Graphics/SVG/1.1/DTD/svg11.dtd">
<svg xmlns="http://www.w3.org/2000/svg" version="1.1" width="1000px" height="1000px" style="shape-rendering:geometricPrecision; text-rendering:geometricPrecision; image-rendering:optimizeQuality; fill-rule:evenodd; clip-rule:evenodd" xmlns:xlink="http://www.w3.org/1999/xlink">
<g><path style="opacity:0.986" fill="#189d0d" d="M 473.5,18.5 C 627.79,10.6144 756.956,62.9477 861,175.5C 962.227,295.265 998.227,432.598 969,587.5C 937.51,721.601 863.01,824.101 745.5,895C 614.028,967.606 477.695,977.939 336.5,926C 317.814,917.986 299.48,909.486 281.5,900.5C 197.634,926.622 113.968,953.455 30.5,981C 27.5576,982.124 24.5576,982.458 21.5,982C 49.8294,898.357 78.1627,814.69 106.5,731C 38.8792,614.98 22.0459,491.813 56,361.5C 100.24,216.934 191.407,114.1 329.5,53C 375.869,34.1642 423.869,22.6642 473.5,18.5 Z M 493.5,97.5 C 635.416,96.4983 747.916,152.832 831,266.5C 898.415,369 916.082,479.667 884,598.5C 845.035,718.46 767.535,802.96 651.5,852C 557.6,886.917 463.6,887.25 369.5,853C 342.846,842.174 317.512,829.008 293.5,813.5C 244.353,829.605 195.187,845.605 146,861.5C 146.816,857.227 147.816,852.894 149,848.5C 163.643,804.904 178.476,761.404 193.5,718C 132.731,632.301 109.231,537.134 123,432.5C 140.859,323.237 194.026,235.737 282.5,170C 345.784,125.627 416.117,101.46 493.5,97.5 Z"/></g>
<g><path style="opacity:0.989" fill="#189d0d" d="M 345.5,257.5 C 359.912,257.972 374.245,259.139 388.5,261C 394.792,265.401 399.292,271.235 402,278.5C 412.21,308.464 423.21,338.131 435,367.5C 440.399,379.383 439.399,390.716 432,401.5C 421.742,414.429 410.742,426.762 399,438.5C 397.443,441.172 396.276,444.005 395.5,447C 426.015,512.52 473.349,562.186 537.5,596C 545.955,599.727 554.288,603.727 562.5,608C 567.618,608.888 572.618,608.555 577.5,607C 594.908,588.929 611.575,570.262 627.5,551C 632.633,548.027 637.967,547.694 643.5,550C 679.226,567.029 714.226,585.362 748.5,605C 750.378,606.543 751.878,608.376 753,610.5C 753.667,617.5 753.667,624.5 753,631.5C 750.626,642.997 747.626,654.33 744,665.5C 739.708,674.462 733.874,682.295 726.5,689C 697.938,712.761 664.938,724.428 627.5,724C 613.857,721.896 600.523,718.563 587.5,714C 551.87,701.127 517.203,686.127 483.5,669C 446.746,645.592 413.58,617.758 384,585.5C 353.173,549.671 325.84,511.338 302,470.5C 288.156,445.138 279.156,418.138 275,389.5C 270.905,340.21 287.405,299.377 324.5,267C 331.095,262.698 338.095,259.531 345.5,257.5 Z"/></g>
</svg>
